HIERARCHY
ROOT hip
{
	OFFSET 0.000000 0.000000 0.000000 
	CHANNELS 6 Xposition Yposition Zposition Xrotation Zrotation Yrotation
	JOINT abdomen
	{
		OFFSET 0.000000 3.402643 0.000000 
		CHANNELS 3 Xrotation Zrotation Yrotation
		JOINT chest
		{
			OFFSET 0.000000 8.438565 -0.680529 
			CHANNELS 3 Xrotation Zrotation Yrotation
			JOINT neck
			{
				OFFSET 0.000000 10.207942 -0.272212 
				CHANNELS 3 Xrotation Zrotation Yrotation
				JOINT head
				{
					OFFSET 0.000000 3.130431 0.000000 
					CHANNELS 3 Xrotation Zrotation Yrotation
					End Site
					{
						OFFSET 0.000000 3.130435 0.000000 
					}
				}
			}
			JOINT lCollar
			{
				OFFSET 3.470700 6.669187 -0.816635 
				CHANNELS 3 Yrotation Zrotation Xrotation
				JOINT lShldr
				{
					OFFSET 3.198488 0.000000 0.000000 
					CHANNELS 3 Zrotation Yrotation Xrotation
					JOINT lForeArm
					{
						OFFSET 10.139888 0.000000 0.000000 
						CHANNELS 3 Yrotation Zrotation Xrotation
						JOINT lHand
						{
							OFFSET 8.370511 0.000000 0.000000 
							CHANNELS 3 Zrotation Yrotation Xrotation
							End Site
							{
								OFFSET 4.083176 0.000000 0.000000 
							}
						}
					}
				}
			}
			JOINT rCollar
			{
				OFFSET -3.470700 6.669187 -0.816635 
				CHANNELS 3 Yrotation Zrotation Xrotation
				JOINT rShldr
				{
					OFFSET -3.198488 0.000000 0.000000 
					CHANNELS 3 Zrotation Yrotation Xrotation
					JOINT rForeArm
					{
						OFFSET -10.139888 0.000000 0.000000 
						CHANNELS 3 Yrotation Zrotation Xrotation
						JOINT rHand
						{
							OFFSET -8.370511 0.000000 0.000000 
							CHANNELS 3 Zrotation Yrotation Xrotation
							End Site
							{
								OFFSET -4.083176 0.000000 0.000000 
							}
						}
					}
				}
			}
		}
	}
	JOINT lThigh
	{
		OFFSET 5.308129 -1.633274 1.361059 
		CHANNELS 3 Xrotation Zrotation Yrotation
		JOINT lShin
		{
			OFFSET -2.041588 -20.007561 0.000000 
			CHANNELS 3 Xrotation Zrotation Yrotation
			JOINT lFoot
			{
				OFFSET 0.000000 -19.190928 -1.224953 
				CHANNELS 3 Xrotation Yrotation Zrotation
				End Site
				{
					OFFSET 0.000000 -2.449906 4.627600 
				}
			}
		}
	}
	JOINT rThigh
	{
		OFFSET -5.308129 -1.633274 1.361059 
		CHANNELS 3 Xrotation Zrotation Yrotation
		JOINT rShin
		{
			OFFSET 2.041588 -20.007561 0.000000 
			CHANNELS 3 Xrotation Zrotation Yrotation
			JOINT rFoot
			{
				OFFSET 0.000000 -19.190928 -1.224953 
				CHANNELS 3 Xrotation Yrotation Zrotation
				End Site
				{
					OFFSET 0.000000 -2.449906 4.627600 
				}
			}
		}
	}
}
MOTION
Frames: 11
Frame Time: 0.016667
-23.479586 39.441601 122.907951 -10.666200 14.713800 -142.210999 -13.888900 4.405320 -0.628434 11.436400 6.422370 -1.066820 2.740350 15.523700 -21.891199 10.693900 8.823540 -9.398830 2.000000 -2.000000 0.000000 -74.028297 -2.258560 138.500000 71.299400 -0.258684 0.129549 0.044826 0.007872 -134.108994 -2.000000 2.000000 0.000000 74.264801 3.307490 146.695999 -83.467300 0.230404 0.135837 1.271480 -1.161110 -119.181999 -50.487434 7.146044 7.138481 58.057686 0.607639 4.211153 -19.715776 7.665785 4.073066 -49.218159 -7.334834 1.627500 59.778252 -0.604103 -4.221804 -12.573093 -2.005759 -0.512211 
-23.266146 39.410583 122.736069 -10.999400 14.304100 -142.251007 -13.877400 4.309090 -0.663891 11.413900 6.576290 -1.114290 2.710050 15.524200 -21.901501 10.703700 8.823350 -9.387560 2.000000 -2.000000 0.000000 -74.125504 -2.376250 138.216995 71.426300 -0.258397 0.129646 0.044807 0.007490 -134.246002 -2.000000 2.000000 0.000000 74.274300 3.327470 146.472000 -83.359901 0.230658 0.135808 1.272070 -1.162190 -119.211998 -50.450504 7.125326 7.545965 58.047905 0.606918 4.211627 -19.759474 7.352284 3.991854 -49.512001 -7.473347 1.843000 60.327869 -0.565130 -4.252995 -13.166170 -2.136264 -0.559127 
-23.041132 39.350227 122.558578 -11.228000 14.235800 -142.001999 -13.925100 4.221480 -0.815137 11.414700 6.537720 -1.186250 2.566790 15.576400 -21.920500 10.674900 8.862730 -9.377820 2.000000 -2.000000 0.000000 -74.105598 -2.318080 137.981995 71.465401 -0.258309 0.129675 0.044794 0.007189 -134.352997 -2.000000 2.000000 0.000000 74.205902 3.376460 146.393997 -83.281799 0.230843 0.135786 1.282490 -1.155740 -119.427002 -50.691769 7.222908 7.566367 58.106087 0.607836 4.199466 -19.631641 6.968011 3.831506 -49.932079 -7.481242 1.919195 60.985577 -0.512801 -4.290706 -13.480909 -2.096875 -0.512566 
-22.816341 39.289871 122.381081 -11.445900 14.158200 -141.740997 -13.962700 4.124590 -0.964016 11.405400 6.508620 -1.251100 2.433690 15.638100 -21.933399 10.646000 8.902120 -9.377880 2.000000 -2.000000 0.000000 -74.085602 -2.259900 137.748001 71.514198 -0.258198 0.129712 0.044782 0.006916 -134.451004 -2.000000 2.000000 0.000000 74.127602 3.435200 146.315994 -83.193901 0.231052 0.135762 1.284320 -1.153890 -119.641998 -50.934612 7.312304 7.579545 58.204418 0.602000 4.211798 -19.538353 6.589510 3.677773 -50.370682 -7.499595 1.998153 61.739571 -0.479438 -4.305064 -13.882165 -2.071292 -0.463836 
-22.590767 39.233620 122.193474 -11.639700 14.005000 -141.602005 -13.978800 3.926240 -0.996222 11.400400 6.238490 -1.246940 2.290450 15.724300 -22.068899 10.606900 8.922300 -9.430550 2.000000 -2.000000 0.000000 -73.851303 -2.279450 137.738007 71.465401 -0.258309 0.129675 0.044778 0.006834 -134.479996 -2.000000 2.000000 0.000000 74.390900 3.435880 145.973999 -83.174400 0.231098 0.135756 1.282490 -1.155740 -119.427002 -51.077938 7.443753 7.650819 58.293129 0.580672 4.215633 -19.470991 6.267836 3.560737 -50.708195 -7.496279 2.013610 62.347641 -0.435764 -4.328646 -13.932133 -2.275264 -0.506396 
-22.364965 39.177383 122.005867 -11.832800 13.842200 -141.470993 -13.994900 3.721870 -1.016800 11.385400 5.968210 -1.235030 2.147100 15.810300 -22.204901 10.577800 8.951990 -9.480610 2.000000 -2.000000 0.000000 -73.616898 -2.298990 137.727997 71.416496 -0.258419 0.129638 0.044773 0.006725 -134.518997 -2.000000 2.000000 0.000000 74.654099 3.446300 145.641998 -83.154800 0.231144 0.135751 1.272270 -1.162540 -119.221001 -51.222073 7.573304 7.713032 58.420746 0.571732 4.225099 -19.412823 5.938253 3.440275 -51.053707 -7.502444 2.022193 62.965416 -0.382877 -4.346076 -13.997273 -2.498782 -0.538118 
-22.122541 39.163353 121.778954 -12.020800 13.584100 -141.113007 -14.020700 3.507270 -1.174710 11.377400 5.862000 -1.305900 2.218010 15.819200 -22.177700 10.587100 8.922690 -9.472640 2.000000 -2.000000 0.000000 -73.372498 -2.182010 137.610992 71.358002 -0.258552 0.129594 0.044754 0.006233 -134.695007 -2.000000 2.000000 0.000000 74.722397 3.397510 145.621994 -82.988800 0.231537 0.135703 1.270520 -1.161890 -119.074997 -51.192596 7.434929 7.587900 58.283371 0.577939 4.214852 -19.193512 5.808646 3.405196 -51.287231 -7.764094 1.715583 63.592941 -0.345669 -4.370523 -14.166180 -2.671214 -0.589543 
-21.880001 39.149456 121.552025 -12.208600 13.326100 -140.764999 -14.046300 3.292710 -1.333100 11.369300 5.755790 -1.377730 2.299160 15.837600 -22.149300 10.586700 8.903290 -9.474840 2.000000 -2.000000 0.000000 -73.128197 -2.074800 137.494003 71.299400 -0.258684 0.129549 0.044736 0.005768 -134.860992 -2.000000 2.000000 0.000000 74.780998 3.348720 145.602005 -82.813004 0.231954 0.135651 1.270150 -1.166240 -118.938004 -51.143177 7.290961 7.473722 58.126427 0.594345 4.210942 -19.013309 5.662559 3.340422 -51.510963 -8.026917 1.420377 64.230911 -0.293990 -4.405456 -14.359732 -2.873959 -0.625677 
-21.621626 39.147018 121.300392 -12.275600 13.064500 -140.501007 -14.066400 3.324270 -1.332250 11.288100 5.918370 -1.403380 2.295010 15.854400 -22.217400 10.586900 8.912990 -9.503040 2.000000 -2.000000 0.000000 -73.293999 -2.094550 137.367004 71.211502 -0.258883 0.129482 0.044719 0.005276 -135.037003 -2.000000 2.000000 0.000000 74.682701 3.291010 145.153000 -82.695801 0.232231 0.135616 1.271900 -1.164410 -119.142998 -50.993484 7.326548 7.422004 57.988525 0.619277 4.201469 -18.736933 5.681600 3.355734 -51.611465 -8.005715 1.402709 64.789719 -0.255461 -4.421299 -14.551929 -2.707551 -0.531740 
-21.363247 39.144447 121.049873 -12.343300 12.812600 -140.246994 -14.096100 3.346190 -1.329640 11.206900 6.071220 -1.426900 2.290150 15.881300 -22.278099 10.587100 8.922690 -9.531230 2.000000 -2.000000 0.000000 -73.459801 -2.114310 137.240005 71.123596 -0.259081 0.129414 0.044703 0.004757 -135.223007 -2.000000 2.000000 0.000000 74.594200 3.233280 144.714005 -82.578697 0.232508 0.135580 1.282150 -1.157680 -119.348999 -50.827030 7.343850 7.366256 57.840965 0.632400 4.185427 -18.469072 5.703797 3.373446 -51.733864 -7.972455 1.387742 65.378502 -0.210822 -4.451012 -14.714125 -2.521075 -0.436131 
-21.084200 39.127575 120.784760 -12.479900 12.739200 -139.852997 -14.093700 3.184360 -1.319090 11.279500 5.841100 -1.400630 2.369520 15.920100 -22.463900 10.625500 8.863710 -9.619720 2.000000 -2.000000 0.000000 -73.108398 -2.221610 137.307999 71.006401 -0.259346 0.129323 0.044663 0.003144 -135.798996 -2.000000 2.000000 0.000000 74.622902 3.194970 144.322998 -82.324699 0.233109 0.135500 1.284930 -1.149820 -119.799004 -50.934616 7.334033 6.999382 57.723949 0.625726 4.186558 -18.179760 5.883897 3.435162 -52.016403 -8.064212 0.898643 65.966476 -0.167312 -4.461452 -14.823872 -2.526626 -0.408808 
